<?xml version="1.0" standalone="no"?>
<!DOCTYPE svg PUBLIC "-//W3C//DTD SVG 20010904//EN"
 "http://www.w3.org/TR/2001/REC-SVG-20010904/DTD/svg10.dtd">
<svg version="1.0" xmlns="http://www.w3.org/2000/svg"
 width="1200.000000pt" height="1200.000000pt" viewBox="0 0 1200.000000 1200.000000"
 preserveAspectRatio="xMidYMid meet">
<metadata>
Created by potrace 1.10, written by Peter Selinger 2001-2011
</metadata>
<g transform="translate(0.000000,1200.000000) scale(0.100000,-0.100000)"
fill="#000000" stroke="none">
<path d="M2160 10616 c-85 -18 -149 -54 -216 -120 -169 -169 -175 -424 -14
-598 65 -72 140 -115 234 -135 66 -14 88 -15 149 -5 193 33 337 177 368 368
37 228 -124 450 -355 493 -72 13 -95 13 -166 -3z m265 -62 c191 -94 279 -325
199 -520 -18 -45 -90 -144 -104 -144 -13 0 -44 59 -50 95 -3 18 -14 34 -27 39
-11 6 -43 47 -70 93 -44 76 -60 92 -75 77 -4 -3 17 -42 44 -87 42 -67 49 -84
39 -99 -6 -10 -11 -24 -11 -31 0 -22 37 -50 59 -44 15 4 25 -4 42 -31 l21 -36
-23 -18 c-21 -18 -22 -18 -33 4 -8 15 -22 24 -44 26 -26 3 -34 -1 -44 -23 -9
-20 -9 -31 -1 -45 11 -16 7 -18 -50 -24 -34 -4 -86 -2 -116 4 -29 5 -56 10
-58 10 -2 0 1 10 8 21 8 16 8 28 0 46 -9 20 -17 24 -43 21 -22 -2 -36 -11 -44
-26 -9 -19 -13 -20 -23 -8 -9 11 7 44 84 165 90 144 110 188 83 179 -11 -4
-56 -71 -159 -241 l-47 -77 -35 42 c-159 194 -124 469 76 601 84 56 128 68
242 64 87 -3 108 -7 160 -33z m15 -568 c0 -21 -21 -31 -30 -15 -5 7 -6 17 -4
21 9 14 34 9 34 -6z m-332 -138 c-7 -19 -38 -22 -38 -4 0 10 9 16 21 16 12 0
19 -5 17 -12z m300 -15 c-2 -10 -10 -18 -18 -18 -8 0 -16 8 -18 18 -2 12 3 17
18 17 15 0 20 -5 18 -17z"/>
<path d="M1975 10373 c-11 -22 -20 -71 -23 -124 -5 -85 -4 -87 22 -104 24 -16
26 -23 26 -82 0 -47 3 -64 13 -61 7 3 13 28 15 66 2 49 7 64 22 72 11 6 20 21
20 33 0 12 5 29 10 37 7 11 10 0 8 -37 -4 -66 15 -71 22 -6 5 45 7 48 33 46
23 -1 27 2 27 23 0 14 7 35 15 47 15 23 7 89 -14 110 -13 13 -44 0 -36 -15 4
-7 -2 -2 -13 11 -24 29 -49 23 -58 -15 l-7 -26 -13 31 c-18 43 -47 41 -69 -6z
m66 -99 c14 -79 2 -117 -34 -112 -21 3 -22 7 -21 83 1 44 7 94 14 110 12 30
12 30 21 7 5 -12 14 -52 20 -88z m69 74 c0 -13 3 -40 6 -60 5 -30 3 -39 -11
-44 -32 -13 -40 31 -18 109 6 25 23 21 23 -5z m54 -21 c-1 -12 -3 -26 -3 -32
-1 -5 -5 -4 -9 3 -5 7 -7 23 -6 35 1 12 3 27 3 32 1 6 5 4 9 -3 5 -7 7 -23 6
-35z"/>
<path d="M2384 10395 c-5 -11 -10 -12 -25 -2 -17 10 -23 9 -35 -7 -16 -22 -19
-102 -4 -111 6 -3 10 -19 10 -36 0 -19 5 -29 15 -29 8 0 15 5 15 11 0 8 4 8
14 -1 8 -6 16 -32 18 -56 4 -63 22 -59 29 6 3 30 6 43 7 28 3 -38 12 -58 28
-58 10 0 14 -15 14 -57 0 -65 12 -95 31 -76 6 6 10 34 7 67 -2 46 0 57 14 62
28 9 39 59 28 135 -13 94 -33 139 -60 139 -15 0 -25 -10 -33 -30 l-11 -29 -13
29 c-13 32 -40 40 -49 15z m39 -90 c7 -46 -4 -71 -28 -61 -14 5 -15 15 -9 63
11 92 23 91 37 -2z m86 14 c17 -77 14 -148 -5 -156 -33 -13 -49 11 -46 68 3
69 21 150 32 144 5 -3 13 -28 19 -56z m-158 -19 c-3 -9 -8 -4 -11 15 -4 17 -4
37 -1 45 3 9 8 4 11 -15 4 -16 4 -37 1 -45z"/>
<path d="M2275 10140 c-8 -13 4 -32 16 -25 12 8 12 35 0 35 -6 0 -13 -4 -16
-10z"/>
<path d="M2205 10110 c-3 -6 1 -13 10 -16 19 -8 30 0 20 15 -8 14 -22 14 -30
1z"/>
<path d="M2175 10041 c-7 -12 12 -24 25 -16 11 7 4 25 -10 25 -5 0 -11 -4 -15
-9z"/>
<path d="M2292 10028 c5 -15 28 -18 29 -3 0 6 -7 12 -17 13 -10 3 -15 -1 -12
-10z"/>
<path d="M2261 9956 c-38 -46 25 -111 69 -71 25 23 26 47 2 68 -23 21 -56 22
-71 3z m52 -22 c9 -10 -4 -34 -19 -34 -8 0 -14 9 -14 20 0 19 19 27 33 14z"/>
<path d="M2165 9930 c-7 -12 2 -30 16 -30 5 0 9 9 9 20 0 21 -15 27 -25 10z"/>
<path d="M2240 9814 c0 -9 5 -14 12 -12 18 6 21 28 4 28 -9 0 -16 -7 -16 -16z"/>
<path d="M1565 9610 c-4 -7 2 -14 14 -17 20 -5 21 -12 21 -134 0 -127 0 -129
23 -129 22 0 22 2 21 125 -1 119 0 124 20 127 12 2 21 10 21 18 0 19 -109 28
-120 10z"/>
<path d="M1734 9607 c-2 -7 -3 -74 -2 -148 3 -111 6 -134 18 -134 10 0 16 12
18 38 4 49 18 47 26 -3 4 -23 12 -40 19 -40 22 0 25 10 15 47 -7 26 -6 44 6
74 28 69 13 156 -29 173 -28 10 -65 7 -71 -7z m66 -46 c22 -42 8 -121 -22
-121 -4 0 -8 32 -8 70 0 70 10 87 30 51z"/>
<path d="M1926 9603 c-3 -10 -12 -67 -21 -128 -9 -60 -19 -118 -21 -127 -10
-33 31 -21 43 13 15 39 47 37 51 -4 2 -19 9 -27 23 -27 11 0 19 7 19 16 0 25
-40 256 -46 266 -9 15 -43 8 -48 -9z m38 -115 c5 -48 4 -58 -9 -58 -8 0 -15 6
-16 13 -2 17 1 58 6 82 2 11 4 22 4 24 3 15 9 -12 15 -61z"/>
<path d="M2070 9476 c0 -141 1 -146 21 -146 19 0 20 4 17 142 -3 127 -5 143
-20 146 -17 3 -18 -9 -18 -142z"/>
<path d="M2162 9478 l3 -143 43 -3 c37 -3 42 -1 42 17 0 16 -6 21 -25 21 l-25
0 0 125 c0 119 -1 125 -20 125 -20 0 -20 -5 -18 -142z"/>
<path d="M2309 9618 c-1 -2 -3 -67 -5 -145 -3 -137 -3 -143 16 -143 17 0 20 7
20 51 0 43 3 50 18 47 13 -2 18 -15 20 -51 3 -39 6 -47 23 -47 18 0 19 8 19
146 0 133 -1 145 -17 142 -15 -3 -18 -16 -21 -81 -3 -70 -5 -77 -23 -77 -19 0
-20 6 -18 78 2 65 0 78 -14 80 -10 2 -18 2 -18 0z"/>
<path d="M2487 9613 c-10 -9 -9 -281 1 -286 4 -2 24 -2 45 0 28 4 37 10 37 24
0 14 -7 19 -25 19 -20 0 -25 5 -25 25 0 18 5 25 20 25 13 0 20 7 20 19 0 10
-9 21 -20 24 -17 4 -20 14 -20 61 0 53 1 56 25 56 18 0 25 5 25 20 0 17 -7 20
-38 20 -21 0 -42 -3 -45 -7z"/>
<path d="M2666 9612 c-3 -5 -12 -53 -20 -108 -9 -54 -19 -116 -22 -136 -6 -34
-4 -38 14 -38 15 0 22 7 24 28 2 19 9 28 26 30 18 3 23 -2 28 -27 7 -36 15
-43 32 -32 10 6 8 36 -8 132 -12 68 -23 132 -26 142 -5 17 -39 24 -48 9z m31
-74 c0 -7 3 -34 6 -60 5 -44 4 -48 -15 -48 -18 0 -20 4 -14 38 3 20 6 47 6 60
0 23 16 32 17 10z"/>
<path d="M2810 9475 l0 -145 38 0 c64 0 75 21 76 144 1 123 -11 146 -76 146
l-38 0 0 -145z m71 68 c2 -134 0 -156 -14 -170 -13 -14 -16 -12 -21 13 -3 16
-5 66 -4 111 3 71 5 83 21 83 13 0 17 -9 18 -37z"/>
</g>
</svg>
