<svg data-v-423bf9ae="" xmlns="http://www.w3.org/2000/svg" viewBox="0 0 477 109" class="iconLeft"><!----><!----><!----><g data-v-423bf9ae="" id="c3e31554-c6de-4633-85d6-9eb403a5fec3" fill="black" transform="matrix(5.424955053999871,0,0,5.424955053999871,127.38102155332822,12.623599098320646)"><path d="M0.28 3.35L8.32 3.35L8.32 5.21L5.39 5.21L5.39 13.05L3.21 13.05L3.21 5.21L0.28 5.21L0.28 3.35ZM14.36 5.81L14.01 7.53L14.01 7.53Q13.73 7.46 13.36 7.38L13.36 7.38L13.36 7.38Q12.98 7.31 12.54 7.31L12.54 7.31L12.54 7.31Q12.35 7.31 12.07 7.34L12.07 7.34L12.07 7.34Q11.80 7.38 11.66 7.42L11.66 7.42L11.66 13.05L9.58 13.05L9.58 6.08L9.58 6.08Q10.14 5.88 10.90 5.71L10.90 5.71L10.90 5.71Q11.66 5.53 12.60 5.53L12.60 5.53L12.60 5.53Q12.77 5.53 13.01 5.55L13.01 5.55L13.01 5.55Q13.24 5.57 13.48 5.61L13.48 5.61L13.48 5.61Q13.72 5.64 13.96 5.69L13.96 5.69L13.96 5.69Q14.20 5.74 14.36 5.81L14.36 5.81ZM18.30 11.59L18.30 11.59L18.30 11.59Q18.61 11.59 18.89 11.58L18.89 11.58L18.89 11.58Q19.17 11.56 19.33 11.54L19.33 11.54L19.33 9.95L19.33 9.95Q19.21 9.93 18.96 9.90L18.96 9.90L18.96 9.90Q18.70 9.87 18.49 9.87L18.49 9.87L18.49 9.87Q18.20 9.87 17.94 9.90L17.94 9.90L17.94 9.90Q17.68 9.94 17.49 10.04L17.49 10.04L17.49 10.04Q17.29 10.14 17.18 10.30L17.18 10.30L17.18 10.30Q17.07 10.47 17.07 10.72L17.07 10.72L17.07 10.72Q17.07 11.21 17.40 11.40L17.40 11.40L17.40 11.40Q17.72 11.59 18.30 11.59ZM18.13 5.49L18.13 5.49L18.13 5.49Q19.05 5.49 19.67 5.70L19.67 5.70L19.67 5.70Q20.29 5.91 20.66 6.30L20.66 6.30L20.66 6.30Q21.03 6.69 21.18 7.25L21.18 7.25L21.18 7.25Q21.34 7.81 21.34 8.50L21.34 8.50L21.34 12.84L21.34 12.84Q20.89 12.94 20.09 13.07L20.09 13.07L20.09 13.07Q19.29 13.20 18.16 13.20L18.16 13.20L18.16 13.20Q17.44 13.20 16.86 13.08L16.86 13.08L16.86 13.08Q16.28 12.95 15.86 12.66L15.86 12.66L15.86 12.66Q15.44 12.38 15.22 11.91L15.22 11.91L15.22 11.91Q14.99 11.45 14.99 10.78L14.99 10.78L14.99 10.78Q14.99 10.14 15.25 9.69L15.25 9.69L15.25 9.69Q15.51 9.24 15.95 8.97L15.95 8.97L15.95 8.97Q16.38 8.71 16.94 8.59L16.94 8.59L16.94 8.59Q17.50 8.47 18.10 8.47L18.10 8.47L18.10 8.47Q18.51 8.47 18.82 8.50L18.82 8.50L18.82 8.50Q19.14 8.54 19.33 8.60L19.33 8.60L19.33 8.40L19.33 8.40Q19.33 7.87 19.01 7.55L19.01 7.55L19.01 7.55Q18.69 7.22 17.89 7.22L17.89 7.22L17.89 7.22Q17.36 7.22 16.84 7.30L16.84 7.30L16.84 7.30Q16.32 7.38 15.95 7.52L15.95 7.52L15.68 5.84L15.68 5.84Q15.86 5.78 16.14 5.72L16.14 5.72L16.14 5.72Q16.41 5.66 16.73 5.61L16.73 5.61L16.73 5.61Q17.05 5.56 17.41 5.52L17.41 5.52L17.41 5.52Q17.77 5.49 18.13 5.49ZM25.31 5.68L25.31 13.05L23.23 13.05L23.23 5.68L25.31 5.68ZM25.51 3.56L25.51 3.56L25.51 3.56Q25.51 4.13 25.14 4.46L25.14 4.46L25.14 4.46Q24.77 4.79 24.26 4.79L24.26 4.79L24.26 4.79Q23.76 4.79 23.39 4.46L23.39 4.46L23.39 4.46Q23.02 4.13 23.02 3.56L23.02 3.56L23.02 3.56Q23.02 2.98 23.39 2.65L23.39 2.65L23.39 2.65Q23.76 2.32 24.26 2.32L24.26 2.32L24.26 2.32Q24.77 2.32 25.14 2.65L25.14 2.65L25.14 2.65Q25.51 2.98 25.51 3.56ZM30.51 11.47L30.21 13.19L30.21 13.19Q29.30 13.17 28.74 12.99L28.74 12.99L28.74 12.99Q28.17 12.81 27.84 12.48L27.84 12.48L27.84 12.48Q27.51 12.15 27.39 11.68L27.39 11.68L27.39 11.68Q27.27 11.21 27.27 10.63L27.27 10.63L27.27 2.52L29.36 2.18L29.36 10.21L29.36 10.21Q29.36 10.49 29.40 10.71L29.40 10.71L29.40 10.71Q29.44 10.93 29.56 11.09L29.56 11.09L29.56 11.09Q29.68 11.24 29.90 11.34L29.90 11.34L29.90 11.34Q30.13 11.44 30.51 11.47L30.51 11.47ZM37.69 7.06L37.69 3.35L39.87 3.35L39.87 13.05L37.69 13.05L37.69 8.93L34.02 8.93L34.02 13.05L31.84 13.05L31.84 3.35L34.02 3.35L34.02 7.06L37.69 7.06ZM41.62 9.42L41.62 9.42L41.62 9.42Q41.62 8.44 41.92 7.71L41.92 7.71L41.92 7.71Q42.22 6.97 42.71 6.48L42.71 6.48L42.71 6.48Q43.20 5.99 43.84 5.74L43.84 5.74L43.84 5.74Q44.48 5.49 45.15 5.49L45.15 5.49L45.15 5.49Q46.72 5.49 47.63 6.45L47.63 6.45L47.63 6.45Q48.54 7.41 48.54 9.27L48.54 9.27L48.54 9.27Q48.54 9.45 48.52 9.67L48.52 9.67L48.52 9.67Q48.51 9.88 48.50 10.05L48.50 10.05L43.76 10.05L43.76 10.05Q43.83 10.70 44.37 11.07L44.37 11.07L44.37 11.07Q44.90 11.45 45.79 11.45L45.79 11.45L45.79 11.45Q46.37 11.45 46.92 11.35L46.92 11.35L46.92 11.35Q47.47 11.24 47.82 11.09L47.82 11.09L48.10 12.78L48.10 12.78Q47.94 12.87 47.66 12.95L47.66 12.95L47.66 12.95Q47.38 13.03 47.03 13.10L47.03 13.10L47.03 13.10Q46.69 13.16 46.30 13.20L46.30 13.20L46.30 13.20Q45.91 13.24 45.51 13.24L45.51 13.24L45.51 13.24Q44.52 13.24 43.79 12.95L43.79 12.95L43.79 12.95Q43.05 12.66 42.57 12.14L42.57 12.14L42.57 12.14Q42.08 11.63 41.85 10.93L41.85 10.93L41.85 10.93Q41.62 10.23 41.62 9.42ZM43.76 8.62L46.52 8.62L46.52 8.62Q46.51 8.36 46.43 8.11L46.43 8.11L46.43 8.11Q46.35 7.85 46.19 7.66L46.19 7.66L46.19 7.66Q46.03 7.46 45.79 7.34L45.79 7.34L45.79 7.34Q45.54 7.21 45.18 7.21L45.18 7.21L45.18 7.21Q44.83 7.21 44.58 7.33L44.58 7.33L44.58 7.33Q44.32 7.45 44.16 7.64L44.16 7.64L44.16 7.64Q43.99 7.84 43.90 8.10L43.90 8.10L43.90 8.10Q43.81 8.36 43.76 8.62L43.76 8.62ZM52.96 11.59L52.96 11.59L52.96 11.59Q53.27 11.59 53.55 11.58L53.55 11.58L53.55 11.58Q53.83 11.56 54.00 11.54L54.00 11.54L54.00 9.95L54.00 9.95Q53.87 9.93 53.62 9.90L53.62 9.90L53.62 9.90Q53.37 9.87 53.16 9.87L53.16 9.87L53.16 9.87Q52.86 9.87 52.61 9.90L52.61 9.90L52.61 9.90Q52.35 9.94 52.15 10.04L52.15 10.04L52.15 10.04Q51.95 10.14 51.84 10.30L51.84 10.30L51.84 10.30Q51.73 10.47 51.73 10.72L51.73 10.72L51.73 10.72Q51.73 11.21 52.06 11.40L52.06 11.40L52.06 11.40Q52.39 11.59 52.96 11.59ZM52.79 5.49L52.79 5.49L52.79 5.49Q53.72 5.49 54.33 5.70L54.33 5.70L54.33 5.70Q54.95 5.91 55.32 6.30L55.32 6.30L55.32 6.30Q55.69 6.69 55.85 7.25L55.85 7.25L55.85 7.25Q56.00 7.81 56.00 8.50L56.00 8.50L56.00 12.84L56.00 12.84Q55.55 12.94 54.75 13.07L54.75 13.07L54.75 13.07Q53.96 13.20 52.82 13.20L52.82 13.20L52.82 13.20Q52.11 13.20 51.53 13.08L51.53 13.08L51.53 13.08Q50.95 12.95 50.53 12.66L50.53 12.66L50.53 12.66Q50.11 12.38 49.88 11.91L49.88 11.91L49.88 11.91Q49.66 11.45 49.66 10.78L49.66 10.78L49.66 10.78Q49.66 10.14 49.92 9.69L49.92 9.69L49.92 9.69Q50.18 9.24 50.61 8.97L50.61 8.97L50.61 8.97Q51.04 8.71 51.60 8.59L51.60 8.59L51.60 8.59Q52.16 8.47 52.77 8.47L52.77 8.47L52.77 8.47Q53.17 8.47 53.49 8.50L53.49 8.50L53.49 8.50Q53.80 8.54 54.00 8.60L54.00 8.60L54.00 8.40L54.00 8.40Q54.00 7.87 53.68 7.55L53.68 7.55L53.68 7.55Q53.35 7.22 52.56 7.22L52.56 7.22L52.56 7.22Q52.02 7.22 51.51 7.30L51.51 7.30L51.51 7.30Q50.99 7.38 50.61 7.52L50.61 7.52L50.34 5.84L50.34 5.84Q50.53 5.78 50.80 5.72L50.80 5.72L50.80 5.72Q51.07 5.66 51.39 5.61L51.39 5.61L51.39 5.61Q51.72 5.56 52.07 5.52L52.07 5.52L52.07 5.52Q52.43 5.49 52.79 5.49ZM59.67 9.31L59.67 9.31L59.67 9.31Q59.67 10.28 60.10 10.86L60.10 10.86L60.10 10.86Q60.54 11.45 61.39 11.45L61.39 11.45L61.39 11.45Q61.67 11.45 61.91 11.43L61.91 11.43L61.91 11.43Q62.15 11.41 62.30 11.38L62.30 11.38L62.30 7.59L62.30 7.59Q62.10 7.46 61.79 7.38L61.79 7.38L61.79 7.38Q61.47 7.29 61.15 7.29L61.15 7.29L61.15 7.29Q59.67 7.29 59.67 9.31ZM64.39 2.18L64.39 12.81L64.39 12.81Q64.11 12.89 63.74 12.97L63.74 12.97L63.74 12.97Q63.38 13.05 62.98 13.10L62.98 13.10L62.98 13.10Q62.58 13.16 62.17 13.20L62.17 13.20L62.17 13.20Q61.75 13.23 61.38 13.23L61.38 13.23L61.38 13.23Q60.47 13.23 59.75 12.96L59.75 12.96L59.75 12.96Q59.04 12.70 58.55 12.20L58.55 12.20L58.55 12.20Q58.06 11.70 57.80 11.00L57.80 11.00L57.80 11.00Q57.54 10.29 57.54 9.41L57.54 9.41L57.54 9.41Q57.54 8.51 57.76 7.79L57.76 7.79L57.76 7.79Q57.99 7.07 58.41 6.57L58.41 6.57L58.41 6.57Q58.83 6.06 59.44 5.80L59.44 5.80L59.44 5.80Q60.05 5.53 60.83 5.53L60.83 5.53L60.83 5.53Q61.26 5.53 61.61 5.61L61.61 5.61L61.61 5.61Q61.95 5.70 62.30 5.85L62.30 5.85L62.30 2.52L64.39 2.18Z"></path></g><!----><g data-v-423bf9ae="" id="4d74375f-c0b9-46d5-a24b-e350a7228b7e" transform="matrix(1.1,0,0,1.1,-0.5000000000000071,-0.5000000000000071)" stroke="none" fill="black"><path d="M50 .5C22.7.5.5 22.7.5 50S22.7 99.5 50 99.5 99.5 77.3 99.5 50 77.3.5 50 .5zM28.8 89.2c0-1.4 1.1-2.5 2.5-2.5s2.5 1.1 2.5 2.5-1.1 2.5-2.5 2.5-2.5-1.1-2.5-2.5zm34.7 1.3c0-1.4 1.1-2.5 2.5-2.5s2.5 1.1 2.5 2.5S67.4 93 66 93s-2.5-1.1-2.5-2.5zM79 86.3c-9.7-5.8-11.5-9.6-11.2-11.7 0-.4.1-.6.2-.9.2-.5.4-1.1.4-2.1-.2-3.4-2.9-5.2-5.6-7-2.3-1.5-4.6-3.1-5.8-5.7-1-2.1-1.1-4.7-.4-7.7.2-.8-.3-1.6-1.1-1.8s-1.6.3-1.8 1.1c-.9 3.7-.7 7 .6 9.7 1.6 3.3 4.4 5.2 6.9 6.9 2.6 1.7 4.2 2.9 4.2 4.6 0 .4 0 .5-.2.9-.1.4-.3.9-.4 1.6-.5 4.3 3.3 8.9 11.6 14-1.6 1.1-3.2 2.1-4.9 3 0-.2.1-.5.1-.7 0-3-2.5-5.5-5.5-5.5s-5.5 2.5-5.5 5.5c0 1.7.8 3.3 2 4.3-4 1.1-8.2 1.7-12.5 1.7-5.5 0-10.8-1-15.6-2.7 1.4-1 2.4-2.7 2.4-4.5 0-3-2.5-5.5-5.5-5.5s-5.5 2.5-5.5 5.5v.4c-2.2-1.4-4.4-2.9-6.3-4.7 3.6-4.4 6.8-7.6 9.7-9.8.5 2.5 2.7 4.3 5.4 4.3 3 0 5.5-2.5 5.5-5.5 0-1.1-.3-2.1-.9-3 .3-.2.6-.5.8-.8 1.4-1.9.9-4 .4-6.1-.3-1.3-.7-2.6-.6-4 .2-2.9 2.5-5.8 6.9-8.7.7-.5.9-1.4.4-2.1-.5-.7-1.4-.9-2.1-.4-5.2 3.4-8 7.1-8.3 11-.1 1.8.3 3.5.7 4.9.5 1.8.7 2.8.2 3.5-.2.3-.5.5-.9.6-.7-.3-1.4-.5-2.2-.5-2 0-3.7 1.1-4.7 2.7-.1 0-.1.1-.2.1-3.6 2.1-7.7 6-12.3 11.6C8.8 74.5 3.5 62.9 3.5 50 3.5 24.4 24.4 3.5 50 3.5S96.5 24.4 96.5 50c0 14.7-6.9 27.8-17.5 36.3zM37 74.1c0 1.4-1.1 2.5-2.5 2.5S32 75.5 32 74.1s1.1-2.5 2.5-2.5 2.5 1.1 2.5 2.5z"></path><path d="M77.2 24.9c-2.3 0-3.9 3.2-5 7.1-.1-.2-.1-.4-.2-.7-1.1-4.2-2.5-6.1-4.4-6.1-1.6 0-2.8 1.4-3.8 4.2-.6-1.8-1.5-3.3-3-3.3-3.8 0-4.1 9.8-4.1 9.9 0 3.1 1.2 4.2 2.6 4.6V46c0 .8.7 1.5 1.5 1.5s1.5-.7 1.5-1.5v-2.2c.7 2.3 2.1 3.1 3.8 3.4v9.7c0 .8.7 1.5 1.5 1.5s1.5-.7 1.5-1.5v-9.7c.3 0 .6-.1.9-.2v.6c0 6.9 2.8 8.3 5.8 8.6v13.7c0 .8.7 1.5 1.5 1.5s1.5-.7 1.5-1.5V56.2c3-.3 5.8-1.7 5.8-8.6-.2-2.7-1.7-22.7-7.4-22.7zm-16.5 5c.5 1.4 1.1 4 1.1 6.1 0 1.4-.3 1.6-.3 1.6s-.2.1-.8.1-.8-.1-.8-.1-.3-.3-.3-1.6c0-2.2.6-4.8 1.1-6.1zm6.9 14.4c-1.8 0-2.7 0-2.7-3.8 0-4.7 1.6-10.8 2.7-12.1 1.2 1.3 2.7 7.4 2.7 12.1 0 3.8-.9 3.8-2.7 3.8zm9.6 9c-2.6 0-4.3 0-4.3-5.7 0-7.5 2.6-18.3 4.3-19.6 1.7 1.4 4.3 12.1 4.3 19.6-.1 5.7-1.8 5.7-4.3 5.7zM39.3 26.1c-1.5 0-2.4 1.5-3 3.3-1-2.8-2.3-4.2-3.8-4.2-1.9 0-3.3 1.9-4.4 6.1-.1.2-.1.4-.2.7-1.1-4-2.7-7.1-5-7.1-5.7 0-7.3 20-7.3 22.7 0 6.9 2.8 8.3 5.8 8.6v13.7c0 .8.7 1.5 1.5 1.5s1.5-.7 1.5-1.5V56.2c3-.3 5.8-1.7 5.8-8.6V47c.3.1.6.1.9.2v9.7c0 .8.7 1.5 1.5 1.5s1.5-.7 1.5-1.5v-9.7c1.7-.2 3.2-1.1 3.8-3.4V46c0 .8.7 1.5 1.5 1.5s1.5-.7 1.5-1.5v-5.5c1.4-.4 2.6-1.5 2.6-4.6-.1 0-.4-9.8-4.2-9.8zM22.8 53.3c-2.6 0-4.3 0-4.3-5.7 0-7.5 2.6-18.3 4.3-19.6 1.7 1.4 4.3 12.1 4.3 19.6 0 5.7-1.7 5.7-4.3 5.7zm16.5-23.4c.5 1.4 1.1 4 1.1 6.1 0 1.4-.3 1.6-.3 1.6s-.2.1-.8.1-.8-.1-.8-.1-.3-.3-.3-1.6c0-2.2.6-4.8 1.1-6.1zm-6.9 14.4c-1.8 0-2.7 0-2.7-3.8 0-4.7 1.6-10.8 2.7-12.1 1.2 1.3 2.7 7.4 2.7 12.1.1 3.8-.8 3.8-2.7 3.8z"></path><circle cx="43.2" cy="67.5" r="1.5"></circle><circle cx="46.6" cy="59.9" r="1.5"></circle><circle cx="41.9" cy="80.6" r="1.5"></circle><circle cx="56.6" cy="68.6" r="1.5"></circle><circle cx="50.2" cy="92.6" r="1.5"></circle><path d="M49.8 80.6c0 3 2.5 5.5 5.5 5.5s5.5-2.5 5.5-5.5-2.5-5.5-5.5-5.5-5.5 2.5-5.5 5.5zm5.4-2.5c1.4 0 2.5 1.1 2.5 2.5s-1.1 2.5-2.5 2.5-2.5-1.1-2.5-2.5 1.2-2.5 2.5-2.5z"></path></g><!----></svg>